<mxfile host="app.diagrams.net" modified="2023-12-03T18:50:35.555Z" agent="Mozilla/5.0 (Macintosh; Intel Mac OS X 10_15_7) AppleWebKit/605.1.15 (KHTML, like Gecko) Version/17.1 Safari/605.1.15" etag="_NQW2h1Y70eJ5kxxO0jL" version="22.1.5" type="device">
  <diagram name="Page-1" id="6FVUyo9XXg4JqVezVQbV">
    <mxGraphModel dx="1156" dy="804" grid="1" gridSize="10" guides="1" tooltips="1" connect="1" arrows="1" fold="1" page="1" pageScale="1" pageWidth="1169" pageHeight="827" math="0" shadow="0">
      <root>
        <mxCell id="0" />
        <mxCell id="1" parent="0" />
        <mxCell id="11ZXBxW8d7kh9rywUKyF-2" value="" style="rounded=1;arcSize=2;dashed=1;fillColor=none;gradientColor=none;dashPattern=1 1;strokeWidth=2;" vertex="1" parent="1">
          <mxGeometry x="132" y="12.5" width="440" height="410" as="geometry" />
        </mxCell>
        <mxCell id="11ZXBxW8d7kh9rywUKyF-3" value="" style="outlineConnect=0;dashed=0;verticalLabelPosition=bottom;verticalAlign=top;align=center;html=1;shape=mxgraph.aws3.cloud_2;fillColor=#F58534;gradientColor=none;" vertex="1" parent="1">
          <mxGeometry x="135" y="15" width="30" height="30" as="geometry" />
        </mxCell>
        <mxCell id="11ZXBxW8d7kh9rywUKyF-8" style="edgeStyle=orthogonalEdgeStyle;rounded=0;sketch=1;hachureGap=4;jiggle=2;curveFitting=1;orthogonalLoop=1;jettySize=auto;html=1;fontFamily=Architects Daughter;fontSource=https%3A%2F%2Ffonts.googleapis.com%2Fcss%3Ffamily%3DArchitects%2BDaughter;fontSize=16;" edge="1" parent="1" source="11ZXBxW8d7kh9rywUKyF-4" target="11ZXBxW8d7kh9rywUKyF-5">
          <mxGeometry relative="1" as="geometry" />
        </mxCell>
        <mxCell id="11ZXBxW8d7kh9rywUKyF-4" value="" style="sketch=0;outlineConnect=0;fontColor=#232F3E;gradientColor=none;fillColor=#7AA116;strokeColor=none;dashed=0;verticalLabelPosition=bottom;verticalAlign=top;align=center;html=1;fontSize=12;fontStyle=0;aspect=fixed;pointerEvents=1;shape=mxgraph.aws4.bucket;" vertex="1" parent="1">
          <mxGeometry x="455.01" y="34" width="38.46" height="40" as="geometry" />
        </mxCell>
        <mxCell id="11ZXBxW8d7kh9rywUKyF-5" value="" style="sketch=0;outlineConnect=0;fontColor=#232F3E;gradientColor=none;fillColor=#7AA116;strokeColor=none;dashed=0;verticalLabelPosition=bottom;verticalAlign=top;align=center;html=1;fontSize=12;fontStyle=0;aspect=fixed;pointerEvents=1;shape=mxgraph.aws4.s3_object_lambda_access_points;" vertex="1" parent="1">
          <mxGeometry x="455.01" y="123" width="40" height="40" as="geometry" />
        </mxCell>
        <mxCell id="11ZXBxW8d7kh9rywUKyF-6" value="S3 Bucket" style="text;html=1;strokeColor=none;fillColor=none;align=center;verticalAlign=middle;whiteSpace=wrap;rounded=0;fontSize=15;fontFamily=Architects Daughter;" vertex="1" parent="1">
          <mxGeometry x="489.01" y="54" width="80" height="20" as="geometry" />
        </mxCell>
        <mxCell id="11ZXBxW8d7kh9rywUKyF-24" style="edgeStyle=orthogonalEdgeStyle;rounded=0;sketch=1;hachureGap=4;jiggle=2;curveFitting=1;orthogonalLoop=1;jettySize=auto;html=1;fontFamily=Architects Daughter;fontSource=https%3A%2F%2Ffonts.googleapis.com%2Fcss%3Ffamily%3DArchitects%2BDaughter;fontSize=16;" edge="1" parent="1" source="11ZXBxW8d7kh9rywUKyF-12" target="11ZXBxW8d7kh9rywUKyF-16">
          <mxGeometry relative="1" as="geometry">
            <mxPoint x="303.0027299163942" y="189.5" as="targetPoint" />
          </mxGeometry>
        </mxCell>
        <mxCell id="11ZXBxW8d7kh9rywUKyF-39" style="edgeStyle=orthogonalEdgeStyle;rounded=0;sketch=1;hachureGap=4;jiggle=2;curveFitting=1;orthogonalLoop=1;jettySize=auto;html=1;fontFamily=Architects Daughter;fontSource=https%3A%2F%2Ffonts.googleapis.com%2Fcss%3Ffamily%3DArchitects%2BDaughter;fontSize=16;" edge="1" parent="1" source="11ZXBxW8d7kh9rywUKyF-12" target="11ZXBxW8d7kh9rywUKyF-36">
          <mxGeometry relative="1" as="geometry" />
        </mxCell>
        <mxCell id="11ZXBxW8d7kh9rywUKyF-12" value="" style="outlineConnect=0;dashed=0;verticalLabelPosition=bottom;verticalAlign=top;align=center;html=1;shape=mxgraph.aws3.lambda_function;fillColor=#F58534;gradientColor=none;" vertex="1" parent="1">
          <mxGeometry x="353.01" y="202" width="50" height="50" as="geometry" />
        </mxCell>
        <mxCell id="11ZXBxW8d7kh9rywUKyF-13" value="deduct data before consumer" style="text;html=1;strokeColor=none;fillColor=none;align=center;verticalAlign=middle;whiteSpace=wrap;rounded=0;fontSize=15;fontFamily=Architects Daughter;" vertex="1" parent="1">
          <mxGeometry x="303.78" y="256.5" width="150" height="30" as="geometry" />
        </mxCell>
        <mxCell id="11ZXBxW8d7kh9rywUKyF-26" style="edgeStyle=orthogonalEdgeStyle;rounded=0;sketch=1;hachureGap=4;jiggle=2;curveFitting=1;orthogonalLoop=1;jettySize=auto;html=1;entryX=1;entryY=0.5;entryDx=0;entryDy=0;fontFamily=Architects Daughter;fontSource=https%3A%2F%2Ffonts.googleapis.com%2Fcss%3Ffamily%3DArchitects%2BDaughter;fontSize=16;" edge="1" parent="1" source="11ZXBxW8d7kh9rywUKyF-16" target="11ZXBxW8d7kh9rywUKyF-20">
          <mxGeometry relative="1" as="geometry" />
        </mxCell>
        <mxCell id="11ZXBxW8d7kh9rywUKyF-16" value="" style="sketch=0;outlineConnect=0;fontColor=#232F3E;gradientColor=none;fillColor=#7AA116;strokeColor=none;dashed=0;verticalLabelPosition=bottom;verticalAlign=top;align=center;html=1;fontSize=12;fontStyle=0;aspect=fixed;pointerEvents=1;shape=mxgraph.aws4.s3_object_lambda_access_points;" vertex="1" parent="1">
          <mxGeometry x="232" y="168" width="40" height="40" as="geometry" />
        </mxCell>
        <mxCell id="11ZXBxW8d7kh9rywUKyF-31" style="edgeStyle=orthogonalEdgeStyle;rounded=0;sketch=1;hachureGap=4;jiggle=2;curveFitting=1;orthogonalLoop=1;jettySize=auto;html=1;fontFamily=Architects Daughter;fontSource=https%3A%2F%2Ffonts.googleapis.com%2Fcss%3Ffamily%3DArchitects%2BDaughter;fontSize=16;" edge="1" parent="1" source="11ZXBxW8d7kh9rywUKyF-17" target="11ZXBxW8d7kh9rywUKyF-4">
          <mxGeometry relative="1" as="geometry" />
        </mxCell>
        <mxCell id="11ZXBxW8d7kh9rywUKyF-17" value="E-Commerce" style="strokeColor=#d79b00;shadow=1;strokeWidth=1;rounded=1;absoluteArcSize=1;arcSize=2;labelPosition=center;verticalLabelPosition=middle;align=center;verticalAlign=bottom;spacingLeft=0;fontSize=12;whiteSpace=wrap;spacingBottom=2;html=1;sketch=1;hachureGap=4;jiggle=2;curveFitting=1;fontFamily=Architects Daughter;fontSource=https%3A%2F%2Ffonts.googleapis.com%2Fcss%3Ffamily%3DArchitects%2BDaughter;fillColor=#ffe6cc;" vertex="1" parent="1">
          <mxGeometry x="13" y="10" width="70" height="85" as="geometry" />
        </mxCell>
        <mxCell id="11ZXBxW8d7kh9rywUKyF-18" value="" style="sketch=0;dashed=0;connectable=0;html=1;fillColor=#757575;strokeColor=none;shape=mxgraph.gcp2.desktop;part=1;hachureGap=4;jiggle=2;curveFitting=1;fontFamily=Architects Daughter;fontSource=https%3A%2F%2Ffonts.googleapis.com%2Fcss%3Ffamily%3DArchitects%2BDaughter;fontSize=20;" vertex="1" parent="11ZXBxW8d7kh9rywUKyF-17">
          <mxGeometry x="0.5" width="50" height="45" relative="1" as="geometry">
            <mxPoint x="-25" y="12.5" as="offset" />
          </mxGeometry>
        </mxCell>
        <mxCell id="11ZXBxW8d7kh9rywUKyF-20" value="Analytics&lt;br&gt;App" style="strokeColor=#6c8ebf;shadow=1;strokeWidth=1;rounded=1;absoluteArcSize=1;arcSize=2;labelPosition=center;verticalLabelPosition=middle;align=center;verticalAlign=bottom;spacingLeft=0;fontSize=12;whiteSpace=wrap;spacingBottom=2;html=1;sketch=1;hachureGap=4;jiggle=2;curveFitting=1;fontFamily=Architects Daughter;fontSource=https%3A%2F%2Ffonts.googleapis.com%2Fcss%3Ffamily%3DArchitects%2BDaughter;fillColor=#dae8fc;" vertex="1" parent="1">
          <mxGeometry x="12" y="140.5" width="70" height="95" as="geometry" />
        </mxCell>
        <mxCell id="11ZXBxW8d7kh9rywUKyF-21" value="" style="sketch=0;dashed=0;connectable=0;html=1;fillColor=#757575;strokeColor=none;shape=mxgraph.gcp2.desktop;part=1;hachureGap=4;jiggle=2;curveFitting=1;fontFamily=Architects Daughter;fontSource=https%3A%2F%2Ffonts.googleapis.com%2Fcss%3Ffamily%3DArchitects%2BDaughter;fontSize=20;" vertex="1" parent="11ZXBxW8d7kh9rywUKyF-20">
          <mxGeometry x="0.5" width="50" height="45" relative="1" as="geometry">
            <mxPoint x="-25" y="12.5" as="offset" />
          </mxGeometry>
        </mxCell>
        <mxCell id="11ZXBxW8d7kh9rywUKyF-22" value="Marketing&lt;br&gt;App" style="strokeColor=#6c8ebf;shadow=1;strokeWidth=1;rounded=1;absoluteArcSize=1;arcSize=2;labelPosition=center;verticalLabelPosition=middle;align=center;verticalAlign=bottom;spacingLeft=0;fontSize=12;whiteSpace=wrap;spacingBottom=2;html=1;sketch=1;hachureGap=4;jiggle=2;curveFitting=1;fontFamily=Architects Daughter;fontSource=https%3A%2F%2Ffonts.googleapis.com%2Fcss%3Ffamily%3DArchitects%2BDaughter;fillColor=#dae8fc;" vertex="1" parent="1">
          <mxGeometry x="10" y="291" width="70" height="95" as="geometry" />
        </mxCell>
        <mxCell id="11ZXBxW8d7kh9rywUKyF-23" value="" style="sketch=0;dashed=0;connectable=0;html=1;fillColor=#757575;strokeColor=none;shape=mxgraph.gcp2.desktop;part=1;hachureGap=4;jiggle=2;curveFitting=1;fontFamily=Architects Daughter;fontSource=https%3A%2F%2Ffonts.googleapis.com%2Fcss%3Ffamily%3DArchitects%2BDaughter;fontSize=20;" vertex="1" parent="11ZXBxW8d7kh9rywUKyF-22">
          <mxGeometry x="0.5" width="50" height="45" relative="1" as="geometry">
            <mxPoint x="-25" y="12.5" as="offset" />
          </mxGeometry>
        </mxCell>
        <mxCell id="11ZXBxW8d7kh9rywUKyF-25" value="S3 Object Lambda &lt;br style=&quot;font-size: 12px;&quot;&gt;Access Point (R/W)" style="text;html=1;strokeColor=none;fillColor=none;align=center;verticalAlign=middle;whiteSpace=wrap;rounded=0;fontSize=12;fontFamily=Architects Daughter;" vertex="1" parent="1">
          <mxGeometry x="173" y="193.5" width="130" height="51" as="geometry" />
        </mxCell>
        <mxCell id="11ZXBxW8d7kh9rywUKyF-32" style="edgeStyle=orthogonalEdgeStyle;rounded=0;sketch=1;hachureGap=4;jiggle=2;curveFitting=1;orthogonalLoop=1;jettySize=auto;html=1;fontFamily=Architects Daughter;fontSource=https%3A%2F%2Ffonts.googleapis.com%2Fcss%3Ffamily%3DArchitects%2BDaughter;fontSize=16;" edge="1" parent="1" source="11ZXBxW8d7kh9rywUKyF-27" target="11ZXBxW8d7kh9rywUKyF-29">
          <mxGeometry relative="1" as="geometry">
            <mxPoint x="303.0027299163942" y="339" as="targetPoint" />
          </mxGeometry>
        </mxCell>
        <mxCell id="11ZXBxW8d7kh9rywUKyF-57" style="edgeStyle=orthogonalEdgeStyle;rounded=0;sketch=1;hachureGap=4;jiggle=2;curveFitting=1;orthogonalLoop=1;jettySize=auto;html=1;fontFamily=Architects Daughter;fontSource=https%3A%2F%2Ffonts.googleapis.com%2Fcss%3Ffamily%3DArchitects%2BDaughter;fontSize=16;" edge="1" parent="1" source="11ZXBxW8d7kh9rywUKyF-27" target="11ZXBxW8d7kh9rywUKyF-44">
          <mxGeometry relative="1" as="geometry" />
        </mxCell>
        <mxCell id="11ZXBxW8d7kh9rywUKyF-27" value="" style="outlineConnect=0;dashed=0;verticalLabelPosition=bottom;verticalAlign=top;align=center;html=1;shape=mxgraph.aws3.lambda_function;fillColor=#F58534;gradientColor=none;" vertex="1" parent="1">
          <mxGeometry x="352.78" y="314" width="50" height="50" as="geometry" />
        </mxCell>
        <mxCell id="11ZXBxW8d7kh9rywUKyF-28" value="enrich data before consumer" style="text;html=1;strokeColor=none;fillColor=none;align=center;verticalAlign=middle;whiteSpace=wrap;rounded=0;fontSize=15;fontFamily=Architects Daughter;" vertex="1" parent="1">
          <mxGeometry x="317" y="370" width="150" height="30" as="geometry" />
        </mxCell>
        <mxCell id="11ZXBxW8d7kh9rywUKyF-30" style="edgeStyle=orthogonalEdgeStyle;rounded=0;sketch=1;hachureGap=4;jiggle=2;curveFitting=1;orthogonalLoop=1;jettySize=auto;html=1;entryX=1;entryY=0.5;entryDx=0;entryDy=0;fontFamily=Architects Daughter;fontSource=https%3A%2F%2Ffonts.googleapis.com%2Fcss%3Ffamily%3DArchitects%2BDaughter;fontSize=16;" edge="1" parent="1" source="11ZXBxW8d7kh9rywUKyF-29" target="11ZXBxW8d7kh9rywUKyF-22">
          <mxGeometry relative="1" as="geometry" />
        </mxCell>
        <mxCell id="11ZXBxW8d7kh9rywUKyF-29" value="" style="sketch=0;outlineConnect=0;fontColor=#232F3E;gradientColor=none;fillColor=#7AA116;strokeColor=none;dashed=0;verticalLabelPosition=bottom;verticalAlign=top;align=center;html=1;fontSize=12;fontStyle=0;aspect=fixed;pointerEvents=1;shape=mxgraph.aws4.s3_object_lambda_access_points;" vertex="1" parent="1">
          <mxGeometry x="232" y="318.5" width="40" height="40" as="geometry" />
        </mxCell>
        <mxCell id="11ZXBxW8d7kh9rywUKyF-34" style="edgeStyle=orthogonalEdgeStyle;rounded=0;sketch=1;hachureGap=4;jiggle=2;curveFitting=1;orthogonalLoop=1;jettySize=auto;html=1;entryX=1;entryY=0.5;entryDx=0;entryDy=0;entryPerimeter=0;fontFamily=Architects Daughter;fontSource=https%3A%2F%2Ffonts.googleapis.com%2Fcss%3Ffamily%3DArchitects%2BDaughter;fontSize=16;" edge="1" parent="1" source="11ZXBxW8d7kh9rywUKyF-5" target="11ZXBxW8d7kh9rywUKyF-12">
          <mxGeometry relative="1" as="geometry">
            <Array as="points">
              <mxPoint x="475.01" y="227" />
            </Array>
          </mxGeometry>
        </mxCell>
        <mxCell id="11ZXBxW8d7kh9rywUKyF-35" style="edgeStyle=orthogonalEdgeStyle;rounded=0;sketch=1;hachureGap=4;jiggle=2;curveFitting=1;orthogonalLoop=1;jettySize=auto;html=1;entryX=1;entryY=0.5;entryDx=0;entryDy=0;entryPerimeter=0;fontFamily=Architects Daughter;fontSource=https%3A%2F%2Ffonts.googleapis.com%2Fcss%3Ffamily%3DArchitects%2BDaughter;fontSize=16;" edge="1" parent="1" source="11ZXBxW8d7kh9rywUKyF-5" target="11ZXBxW8d7kh9rywUKyF-27">
          <mxGeometry relative="1" as="geometry">
            <Array as="points">
              <mxPoint x="473.01" y="339" />
            </Array>
          </mxGeometry>
        </mxCell>
        <mxCell id="11ZXBxW8d7kh9rywUKyF-36" value="" style="sketch=0;outlineConnect=0;fontColor=#232F3E;gradientColor=none;fillColor=#7AA116;strokeColor=none;dashed=0;verticalLabelPosition=bottom;verticalAlign=top;align=center;html=1;fontSize=12;fontStyle=0;aspect=fixed;pointerEvents=1;shape=mxgraph.aws4.bucket_with_objects;hachureGap=4;jiggle=2;curveFitting=1;fontFamily=Architects Daughter;fontSource=https%3A%2F%2Ffonts.googleapis.com%2Fcss%3Ffamily%3DArchitects%2BDaughter;" vertex="1" parent="1">
          <mxGeometry x="513.01" y="208" width="36.54" height="38" as="geometry" />
        </mxCell>
        <mxCell id="11ZXBxW8d7kh9rywUKyF-37" value="" style="outlineConnect=0;dashed=0;verticalLabelPosition=bottom;verticalAlign=top;align=center;html=1;shape=mxgraph.aws3.dynamo_db;fillColor=#2E73B8;gradientColor=none;" vertex="1" parent="1">
          <mxGeometry x="515.28" y="258.5" width="32" height="33" as="geometry" />
        </mxCell>
        <mxCell id="11ZXBxW8d7kh9rywUKyF-40" style="edgeStyle=orthogonalEdgeStyle;rounded=0;sketch=1;hachureGap=4;jiggle=2;curveFitting=1;orthogonalLoop=1;jettySize=auto;html=1;entryX=0;entryY=0.5;entryDx=0;entryDy=0;entryPerimeter=0;fontFamily=Architects Daughter;fontSource=https%3A%2F%2Ffonts.googleapis.com%2Fcss%3Ffamily%3DArchitects%2BDaughter;fontSize=16;" edge="1" parent="1" source="11ZXBxW8d7kh9rywUKyF-12" target="11ZXBxW8d7kh9rywUKyF-37">
          <mxGeometry relative="1" as="geometry">
            <Array as="points">
              <mxPoint x="473.01" y="227" />
              <mxPoint x="473.01" y="275" />
            </Array>
          </mxGeometry>
        </mxCell>
        <mxCell id="11ZXBxW8d7kh9rywUKyF-41" value="" style="shape=image;verticalLabelPosition=bottom;labelBackgroundColor=default;verticalAlign=top;aspect=fixed;imageAspect=0;image=data:image/png,iVBORw0KGgoAAAANSUhEUgAAAoAAAAFoCAYAAADHMkpRAABBRElEQVR4Xu3dB5hdVb3+8T2TSkJCSChJ6CA1ItIUVBSQKoICl3YvioJiQ1QE8eoFLCiKFAEFIZMpKZNeSe+9kIT03uukzGQySaaX97/WbPwLZ52dTJ9z9v7+nufzID+TYc46Z9Z+Z5e1PEkeAAAAosNpAAAAINycBgAAAMLNaQAAACDcnAYAAADCzWkAAAAg3JwGAAAAws1pAECzyJmRog192xsnGV2N0z5yqjb27WL+eZzylqU4fw8AUGtOAwAaXf6alprzg/M0+wc3Gz80XtSgc95WmtfXGGaMMsZ+ZJR6eUPNP7M04sq3zJ/9nfGIcb35GmeqtIBQCAC15DQAoEGVF6aq5EBbbRtxiob2uMN4RQPPnmdC3SYjxygwSo0qQ8dQaZQY+cYuY4OGXDjZfM0/GDcob9mJ5r/VRhXFhEIAOAqnAQANYseE9to26jKNvenbSvMGmbCWGyfQNbQd5r/1nmY+dp/5b1+sPXNbOd8XAIAACKCB5cw6Xh/86mZltnvLBLJlRnGcoNbYjpggOF8Dzvqj+V6+oIPr2zjfJwBEmNMAgFqrqjIqPY25/mYNPHuECV/bTQiriBPMmpK9pFxivpdNGnpJtmY+2qP6e7Tfa+z3DwAR4zQAoMZsoMqZ0UkzvnurCVv2YY3mDn1HY88KZunDP1ynfR8c57wWAIgQpwEANbJjUqo+/P2VJli9a+yJE7gS1Tb17fIHLfvTRcpbysMiACLJaQDA0eV72nP7SRpw9rNK85bKfzI3NmQlOntf4lwNu/RxHXmQs4EAIsdpAEBcJXkpylvSRUMvuk+Z3koToMpUs6VbElWVCbClykqZpQl3fNW8thNUXug5rxsAQshpAIBjU6+2mv4/t5nQZBdqLowTppKZDbH7jXe04JnrtHM4l4UBhJ7TAIBPWPHa2erT5nUTkLYosR/yqK8KE25Xa8Cpv9bmwV2dcQCAEHEaAKDCnBTtGNtN/U/7qTLbrpa/U0dsYAqftOrLwsXq3WGhee0PK39tJxXnckYQQOg4DQARdni3p1W9O2twjztNEJqu5HzAo6FUqqc3QGNuvUUre3dQWZHnjBcAJCmnASCiKss8jb3jWr3t9ZK/R28yP+DRUGwA3qp/eP/QvF9e5IwZACQppwEgQuxCziV5LbT4d101+OL/U5q3U/7TvbFBKOpKldF6tYZc8oTW9z5ZJQe4LAwgqTkNABGyZWg39fYeNwFnuaJ9ubem7EMw89XvhPu1b2QXaaPnjCkAJAGnASAC9i08Tguevl19Thwku0WaG3RwNGneAQ32emnBDV/R4e2tnPEFgATnNACElL3cW1nuadwdZ2rQee+YELND4V7WpbGVmTHcqmGX/k2zn+hUPbZVVZ4z7gCQgJwGgBAqO9RCk584R//wnjahxS56HBtmUHf2YZlN+pf3Yy195YzqoB07/gCQYJwGgJDZ1Pd4zfnRd01ImSZ/D9zYAIOGUWjC9TgtfuEu7ZjY3nkfACCBOA0AIZG7JFXjb71Kfbv0kb/VWWxgQWOwl9YHnPWext16iUryPed9AYAE4DQAJLkjO1tp71XnKqPtP0wgyZX/dC9r+jUdO9Z2W7k89Wr3nIbff5aKc1s67xMANCOnASBJlRd5WvXmGRpzwxMmfHwYJ5ig6dkHReZo6n8/rnU9T3beMwBoJk4DQBJa/k6qJtx1hwkcE42DcYIImpNdNiazzXBNvf/L2j66hfP+AUATcxoAksihrW208q0rldEu66One7nUm7jspfgcZXX8l7adfYkKd7F+IIBm4zQAJIEDq1K1PvMCZZ3wvAkVdj2/2LCBRGbXDxxyyZPakHmuCnenOu8vADQypwEgwY3/cQeNvOZ7JkRMk92jNjZcIFkUGpM04WuPaNmLnA0E0KScBoAEVFnqqXh/G03/1tV6N2WC/Pv8uNyb/Ox7eEAZbQdq0fNXmve4NQtJA2gKTgNAgsmZ3kIf/uHz6um9ZcJCfpwQgXCw93C+qnWZlyr3Qx4UAdConAaARLHc09Zfnqb+XX+hNG+l2Lc3CirNez1fwz/9hKb9squO7PPczwUA1J/TANDMKis8Fe1rpRHn36Vsb6oJBIfiBAWEl70sfFDvepM1+vqbVFmWqirzmYj9nABAPTgNAM2kvNDTnqntNf72L5oAMOijIBAbDhAtpeYXgCzN/vEXtHv6cc5nBgDqyGkAaCaLfnuJsry/moP+FvlrxsWGAUSTvSy8QektX9TC35+rrdM957MDALXkNAA0sa3Djte4mx9VRuuF5mBfEicAAFaJ3vNmKvu8byn3w3bO5wgAasFpAGgCh3Z72reoozI73aH0VrOqD+5c8sWx2c9ImTLazNSoK65TrvkMlR7wnM8XAByD0wDQyI5sb62Rt1+rf3lvmoM5D3igbtK8fcrw/q7Zj16r8kKWjQFQK04DQCOa/+sTNfrLL5oD+GrZMzmxB3WgdspMEFyliXc+q9Vvd3Y+bwAQwGkAaGB2WZeNvbpoUNeHlN7qQ3PA5j4/NLQiZR63QP27PqDdUztX32IQ+zkEgI9xGgAa0J7Z7bTqzZvNAXpE9UHaPXADDalEPb0B6nvl9Tqwsr3zeQSAjzgNAA2gaE+KZj12iYZc8Kr8ZV1iD9RAY7FLCG3UqM+/qlk/uND5bAKACIBAwyovTNWYH5yg/uf8zByE14une9F8zGcvZYOGXvA9rfhLZxXuTVVVled8ZgFEktMAUEdbR3TRrEcfMAdeu6wL+/YiUdiHjWboNe8B7ZhwgvO5BRBJTgNALe2e0EILfnGterXsYw60++McgIFEcED9Tn1X83/xBeUta+l8jgFEitMAUENlRSnKvLqrBpz2R3NwXac0tm9Dwis3Nmjwp/6kWfd0VmV5ivO5BhAJTgPAMRTvS9Wuyd015KLvmIPptjgHWSAZrNf42x+r/iyXFxIEgYhxGgCOYvU/2mjag/eag+dwpXlH4hxUgeSRVr0TzUjNe/Ib2jKotfN5BxBaTgNAgBWvnqesdv8yB8xd8pfacA+oQPKxT6lvV/Yp/9SYmy5Q/jrP+ewDCB2nAeBjCjamauuIc5XZ9nmlt9gpgh/CyYbASqV5Ocrq8IL2LzxDhbvYXxgIMacBwDiy19Oi107WsMv+xxwUZ1YfHN2DJhBG9rM+TeNve0TLXzupeivD2J8PAEnPaQAwxt1+nd7xBslf1oWFnBE19jO/3/zyM0LjvnmNlmR4zs8IgKTmNIBIsjskFKxrrYW/uVB9T3nFHPzyxGLOQKV6ejlKb/eG1vbsoUNbWjk/OwCSktMAomeBp63vna5075fmgLe6+qDnHgiBqFuvvl1/qrW9ztLB9SwbAyQ5pwFESu7i4zSrx93q5400B7jiOAc9AP9RqDRvjN7/0gMq+nlb5+cJQNJwGkDoVRR5KtrTWuO/eomyuw0wB7VccdYPqCn7s3JAA1sM1Ozvf9r8LLVRZZnn/JwBSGhOAwi1ssMttOCJHsr0XjAHsb1xDm4AasY+KLJHPb0/a9lfP6N9M7ksDCQRpwGE1rqMEzTjOz9UmjfPHLhK4hzQANReufmZWqAhZz6uHeNPcn7uACQkpwGESkWpp7ylrTXyyuvU58SR5kB1IM4BDED9VJmfrXxldx+r4VfeqNJDLbgsDCQ2pwGERsGmtsq68lL19NLNAaoozkELQMOzyye9qyn3XqXdE49TpfklLPZnE0CzcxpA0rM7Fyx6/myNuf7XSvNWiIWcgaZWYX721ijT+52WvXS28zMKoNk5DSCprXqnhcbc8HVz8JlvDkKH4xyYADSdImW2m6mxN96nneNZNgZIIE4DSEp5M9tpeesb1Ct1lAl/heKsH5Ao7M9iidJbTtTArjfo4ILjpRzP+RkG0KScBpBU8le20IpXL1XfU/5sgl9OnIMPgESR5u3TMO9lrfjGlSra09L5eQbQZJwGkDSmP3q8Rl7xpDmwLDBKnYMNgERkl2BapjHXP6slv2vv/FwDaBJOA0ho5cUpyl/bUVPuv0VpqXPkb9/G5V4gudif2WKlt5qngSffoy39OquqynN+3gE0GqcBJKxd41po8XPXq6fXyxw88uMcVAAkmzTvsDFAa/71Je2bz4MiQBNxGkDC2b/G07hHztCA7s+ZA8ZasW8vEEZrNfSSlzT1kfNUWuA58wCABuU0gIRRVpCiIzuOV//u39F73mKlVS/mzOVeIJz8y8Jp3jpln/2YJv6sk8oLU515AUCDcBpAs6so8bR5UEdNuvNWc0AYFudAASDc7ENdEzXnx/dq26hOzhwBoN6cBtDsFj33aTP5v600b7u43AtE2R5ltuup+U9epZzpnA0EGpDTAJpFeVGKNg/touFX/EwZbe32bWVxDgYAoqfcWKP+pz+n/deerIriFGf+AFBrTgNoUvnbPG2b0EX9Ot+vNG+xOOMHIEiat978kvjf2jGhq4rzCIJAPTgNoMkc2d1SI2+9Vu94Pc3kftCZ7AHAVWCC4CBN/9bXtPFdLgsDdeQ0gCax9JlUjbjqF2Yit8u6cLkXQG1UGNvVp+MftPrtk5z5BcAxOQ2gUZUWtNTsH31WvVLs0702+LGsC4C6SbNBMPUD9W15h3JmsIg0UAtOA2g0W/ulaPYPHzQTt73Xz/4G707oCLkUKauDNOAMacjF0ogrpTFfkSZ8TZr0TWnqfcaD0vRvSTO+7Zv+sOk9IE0x/9+kb0jjb5NGf0kafrk0+AIpu7v5mu3i/LcQITnqd/IvtGM8S8YANeQ0gEaxMaOlsk/8npmod8aZvBFGmSaUDfuMCW13S/N+Jq14VdrUX+YgLe2ZLe1fKB1YLhVskI5slwp3S8X7jFypNN846Csx/7t4v1S0z/8zh7dJB9dJecukfQuknBnma46VNvSRlr4k80uGCZRf9wNmeiv3+0I4pXn5GnDW69o1pbsz/wBwOA2gQVWWe1rzXhdltP2TmaQPOJM2kltGG6lvF5kDrzTyamnuk9Lann7AK9rjB7iyI1JFscxnQaqqMh8Lq6HLfM2qSvPfKJPKzX+r7LAfIo/skHZNlVa9Kc18RBpxhX/2sU8nwmH42NtJypR1/BjtvOACFe4wzThzEoBqTgNoUOvSO5tJ+Q3z23lhnAkbyaj3Cf6l2yn3S4ufl7YO98/i2fCV6GXD4YFV/tnCD34lTb5bGnqplHmc+zqRzKZo3JWf1sEV5l/izEsACIBoRGt7tVPWCS/L7u/pTtBIJpntpbE3SYt+I20e7F9+tWf37Fm3ZC37vdvLzfs+8APh/F9Ioz7PmcFwKFe6N1qrr+4hbTGNOPMTEHFOA6g3e9l3fa8OyurwB6V5BXEmZyS6jNZS35Ok96+Rlr5oAt9y/z688qKPLuOGrGwYLD8iFeZIe+dJC//Xv3+xzwkmELZ0xwfJoEx9vTHaPeE8xc5RAAiAaASHerZVb+9Zsbhz8sk+VRpzg7ToOSl3iX/fXlSrslTaNVFa8EsThL/kX/qOHS8kvvTWw5Uz/UTFzlNAxDkNoN7mdb/bTLy7nYkYCSpVGnS+NOdH0tYR/oMTVRWiPiobggs2Suuz/CVpsrvFGUMksDINOON32jmunWLnKiDCnAZQZ5VlnuY/daHSW66KMwkjoaRIGa2kwRdKK9+QDqyWSgtEHaXsZeKSPCl3qf/wi11/kMvDycA+HZyj/l2/pX0ftFDsvAVElNMA6mz1m93NRDtCLPKc2OwZLLug8sZsqbxQVF2qyl+zcNU/pbE3SH1OdMcZiWaVlv3liybIm3+JM38BEeM0gDop3NVW4275FQ99JLA+nf3dNDYP8dfIoxqm7OLUa9+TJtzOjiSJb5RW/7ONYucvIIKcBlAno754mZlcN8WZcJEIJt0lbXvfX5w5mZduSdSy9wnaeyc3D5SGXeqOPxJFqUZ9/kHFzl9ABDkNoNbyV7VVZtvx8u+1iZ1w0VzsbhfjbvW3Sfv/u3BQjVp2jO0uJHZdQbtfMQtMJ540b5XmP32JYucxIGKcBlBr42+9x0ysJc5Ei+ZhH0ywCxrbLdnsGT+qecruWbz4d9KQi1T9pHXs+4TmUqTRX/6zDq436TzOfAZEhNMAamXTgK7qd/JYcfYvMfQ7WVr0WylvBWf8EqHsHsh75kqzf8jZwMSySluvvkIqMP8SZ14DIsBpADVWdiRV8376AzOZ5seZYNGUeneUJnzNX7y5opTwl0hl3wsbBHdOkEZ+jiCYGCqV6b2i4v2tFTuvARHhNIAa2z3tNKV5Y+JMrmgq6anS8M9Kq95iHb9ELxsED2/3d1kZeI77XqKp7dK6tLMVO68BEeE0gBqprPA09uY7zSTKsi/NxoS/af8t7V/on/WjkqPs2ou7Jkujv6zqBbmd9xVNZuhFTyl2bgMiwmkANVK4K0Vp3gBnQkUTSPXPINkdPIpzudybjGXfs0NbpAW/kvqeHOc9RpNIb7VQC57toNj5DYgApwHUyPhrTjMTaKEzoaJx2Sd8J35D2reA9fzCUHZ5nq0jpeFXmPe2hft+o7Ht16zvfVOx8xsQAU4DqJFR1/wwzmSKxtT7BGnuT/zlRahw1b6F0tQHeUCk6ZVp8CVvaM+8Voqd44CQcxrAMX34akult3s/zmSKxjLgTGnNu1LJAS75hrHs2Vy7ZuOHv5eyOrjvPxpPmjdV6zPPUew8B4Sc0wCOacHTV5hJc70zkaLh2cuCI66W9i8RFZHaNEgafIFYPLrJ7NGsp25X6RHzL3HmOyCknAZwTAue/o6ZNPPiTKRoSBltpMl3+2v7UdGpyjJpp31K+DruC2walXrL+5nyN5rBjjPfASHlNICj2j2rhbJP/4uZNMvjTKRoKPZhj9mPS4e38rBHFKuyQjqwShp7k/vZQGPopYKNPA2MSHEawFFtHdFdad4IsfVb4+nbRVr6Zz/4cb9fdMu+9yX50ozvSlnHu58TNKRlJgB2Vex8B4SY0wCOauuIHmayXBhnAkVD6H+6v75f+RFRVHUV5kgLnpF683BIIyrQkt+fq9j5DggxpwEc1dYRXzST5c44Eyjqy575W5cplR0WRX2iivf7Twizc0hjqdKAbtcpdr4DQsxpAIEqyz2tfOMucf9fw+vfXdoy3F8YmKLiVXmRtORFfz3I2M8P6q9/t+8rds4DQsxpAIGKc1PMRPmYM3GifgafL20e7D/9SVFHq9KD0rK/SH06u58j1E92txcUO+cBIeY0gEDFuS3V0/tfZ+JE3WV3kzZmS+XFoqgalV0M3IZAlohpWNnd3lHsnAeEmNMAAhXntlKa9zdn4kTd9O4obRkmVZSKompV9nLwwv+VMtu6nyvUTXa3gYqd84AQcxpAoOLc1maifMuZOFF72V39rd3sem8UVZeyZwIXPM0SMQ0lu9sYxc55QIg5DSBQcW4bM1G+50ycqJ3enaRlL0llh0RR9aojO6WZ3/UXDo/9nKF2srtNVuycB4SY0wACFee2NRNlT2fiRC208Nd0KysQRTVI2XUCx9wgloipp+xuMxQ75wEh5jSAQATA+rE37U+5T6rgaV+qgatgozTqGhEC64EAiIhxGkAgAmA9mAPz2Bul/DWiqAYvey/pjonSkIvifPZQIwRARIzTAAIRAOtu8IXS7qk89EE1XlWUSGt7sVB0XREAETFOAwhEAKybfqdI2+0DhlStqviAtGOcNO/n0rhbpDk/lDYPkQ5tlaqqYv809e9a8kcpo7X7OcTREQARMU4DCEQArL30VtKHL5jAUimqFnV4qzT3SX+txI+Pp133buxN0rZRUgWLZ8etkjxp8r3ifsBaIgAiYpwGEIgAWHuT7pYKd4mqRRXtlWb/QMpo447nvw04U1r2VxN2Dsb+bcr+srF3njTss+64IRgBEBHjNIBABMBaSPGfyty/mMuVtSm7K8qqt6TM4+KMaQx7mXPm96QjObFfhbIhcFO2v+B47LghPgIgIsZpAIEIgDXXp7O0eSCXfmtbdk27Ude64xnIBO1Z35eK9sR+Jco+FPLBs3HGDHERABExTgMIRACsuTk/8vdrpWpX+xYe/dJvPPZs4Qe/lkryY78aVbhbGnm1O2ZwEQARMU4DCEQArJnhn5UObxdVh1qX4Y5nTWR1kJba7fUKY79itMuegbZPUvfr5o4ZPokAiIhxGkAgAuCxZZsD7dbhrPdX17JLmMSOaU3ZPZY3DYj9ilTZYWnRb/0nqGPHDP9BAETEOA0gEAHw6OySL3N/wqXI+tTC/3XHtTaG9mC3lXiVv76W91ZGEAEQEeM0gEAEwKMbcrF0YAVP/danFv7GHddaaSGNu1la8Yrxau2seVvKXeqvLxi299BeCt46kgWij4YAiIhxGkAgAmCw9JbS+ixR9ayVb7hj25QyWkmzviftXeA/RRu2mvaw+5rhIwAiYpwGEIgAGMxuVVZ6WFQ9a8tQd2ybXKo07NPSitel8pA9VLJ3rjTwnDivGQRARI3TAAIRAOPr29nfmow1/+pfeUtVfRk3doybQ+8TpBmPSgUb/EvCYbgsXHbEv8/SnrGOfb1RRwBExDgNIBAB0GUPpHOfkErZkqxByi6fM+RCd5ybk91Nw96buO8D6eB6Ewg3Jo5DW6SSA7ULp/Y1jL7OfZ1RRwBExDgNIBAB0DXoPClnlqgGquI8acp97jgngv6nSSM/J73/hcQx5npp5nelTQNr/vS5PVO9+p+1X3A77AiAiBinAQQiALrmPxXOhwWaq+xewHZB59hxxtH1O1Wa8Yh0YGXNzgaW5PlPrcd+nSgjACJinAYQiAD4SX1PkgrZg7ZBy4YXu3NFdnd3vHEMqdKAM6XNg2qwDaEZ5w29/aeena8TUQRARIzTAAIRAD/pg2dENULZ+9rGftUdb9RMnxOlVW8d+77UwhxpzJfdvx9VBEBEjNMAAhEA/2PQudL+haIaoSrLpIXP+jurxI47asaenV76VxMCD8WO7n/KjvPqt6XM9u7fjyICICLGaQCBCIC+9BbSB7/yl9SgGqdyZkr9urpjj5rLMsFu+d/8+yqD6uA6ngj+NwIgIsZpAIEIgL7BF/Dkb2OXDS1jb3LHHrWT2Vba0Cc4BNongu1DN/bPxf7dqCEAImKcBhCIAGik+NtplbHrR6OXDS7O+KPW7LqKOycFL1Ru1wVkdxACICLHaQCBCIBS1vHS9jGimqDsQwqDE2xR6KSUKo27WSpYH3+JGBsM5/88zt+LGAIgIsZpAIEIgNL7X5Iqy0U1QR3a7O+xHPseoG7m/Nh/8CNe5S337xmM/TtRQgBExDgNIBABUFrXS1QT1MEN0rT/UfXZq9j3AHVjA96eObEj7VdpgTThDvfvRAkBEBHjNIBAUQ+AA872n5qkGq/sJcr81dLEu1ikuDFMuiv+0+uVFdLantFeeocAiIhxGkCgSAfAFP8+KR7+aNzav0ga9fk4448G0beLtKFv/AdCDqySRl7j/p2oIAAiYpwGECjKAdAurLtlaPwDJ9UwZfexHXO9O/ZoQOYXmenfkvlZjh19f/u4OU8ospfdCYCIGKcBBIpyALRbZhVsEtVIdciM7aS7/UW2Y8ceDWvIxdK+D2LfAb829jO/7HR2/04UEAARMU4DCBTVAJjeUvrgWc7+NVYd2ipN+S9F9sxTkzPjvDbNv+8vtor2SMM/G+fvRAABEBHjNIBAUQ2A9r6pHRNENULZy46zHhfhr4nNfcIf+3hl/7/YPx8FBEBEjNMAAkU1AA65RCo5KKqBy56BWvUPKfM4d8zRuCZ8XSo7FPuO+LVzsvvno4AAiIhxGkCgqAbA+b+Iv4MCVfeyi2lvHij1P8MdbzS+UddKpQG/1JSaYJjd1f07YUcARMQ4DSBQJANgirR7mqgGLBum7XIvI66KM95oEnZrOLv4c7yqKPtoEe44fy/MCICIGKcBBIpiAOx/mlS4W1QDVnkxD300t1nfM+9DYew741dlpbQuzf07YUcARMQ4DSBQFAPglPv9S2JUw1RVhbT6bXb5aE52qR27pWG8p4Bt2TO0e+eZX35Od/9umBEAETFOAwgUuQCY6j+kYO9Xo+pfNljkzPK31HPGGk0jRRp9nb/d3tHq8HZpwtfi/P0QIwAiYpwGEChqATD7VGnnJPPSeQCkQcpeSp/6EIs9N5f0VD/U7Zxofqkpi313Pln28vC8J92vEWYEQESM0wACRS0AjrrG3x+Vqn/Zs6jrMqSsDu44o5Gk+GG77ykmeD8obRogHd7hX4Y/Vtmztfbsd1b7OF83pAiAiBinAQSKWgC0T0Ky/l/D1MH10oAz3TFGw7C71dgFyweeK424Qpr8TWnJi/4Z7Iri2HejZmWffh94tvvfCisCICLGaQCBohQA01tJi59j+7eGKHv2b27ELic2qlQ/7A2/XJpwhzTr+ybs/VHa0EfKMRnm8LbgBzxqU0d2mDB5ZZz/fkgRABExTgMIFKUA2OdEc0DtK6oBaveM6D1R2pB6d5JGXi1Nf1ha9ldpyzBpzyzpwEo/pNn1/BrjFxUb3Cfe6X4/YUUARMQ4DSBQlALgwHOk3CWi6llF+z5a8y/FHWOoelzsfXZ2543Bn/LPuE37b2npn6XNJujlr/UfyKgo8R/csPfvVe9K00QPJi36rf89Ot93CBEAETFOAwgUpQA47FKpJF9UPcqeQdrYX+p7kju+Udb7BGnop6VJd0nzfiqteE3aPsaEvTUm7BUl1raDG7P9p4djX0MYEQARMU4DCBSlADjhtsQ6ECdjFe/371GLHdvIMQFq4FnStAellW+YsDfa3wrPLotTWRo7aolVuUujs2wPARAR4zSAQFEKgAt+KaqeZc/+2adTY8c27LKO97cQHHODtPQlf1eNor1S2WH/rGgy/WJhLz1HZSkYAiAixmkAgaIUANdniapH2QcTRn3eHdewymgtDb1EmnKftOZf/r17x1psOVlqaA/39YYRARAR4zSAQFEKgHvmiKpH2SeoM9u54xo26Sb4jf6ytOot/0xf9RO5SXSGryY14Xb3dYcRARAR4zSAQFEKgHZ5DapuVZgjjQ9zaEiRenfwX+O2UR/dyxfi/aLn/DjOGIQQARAR4zSAQFEJgPYpTbv0BlX7sgsQ28vnfTq74xoG9rMx/jZp68iGWWw5GWrFK+44hBEBEBHjNIBAUQmAQy7xl+Ogal/2YYfqdf/ijGuys9us2ad4j+wM32Xeo9Xmwe5YhBEBEBHjNIBAUQmA426p+/6pUa9dk/3Lo7FjmtRSpBFXSXvn+k/FRq1yZsYZkxAiACJinAYQKCoBcMYjib8+WyKWvQ8ubA8MZLTxd+Y4vDX21Uan7JqFUXighwCIiHEaQKCoBMB5PwvPEh5NWfsWhi8oTPi6VLAh9pVGq3KXSf1OdccmbAiAiBinAQSKSgBc/EK4n+psjLJ71M61T4umuOOZrPqdIuUtj32l0av81dKg893xCRsCICLGaQCBohIAV74ZnSc8G6r2zJIGhygk2N0v1qWbYFsZ+0qjVwUbpRFXumMUNgRARIzTAAJFJQCuIgDWquwT04t+6++GETuWSamFf9+fXc+Qkg5tkd7/YpxxChkCICLGaQCBohIAh10q7ZoqqoZ1YHW4zhANPEvaOTFaS70crewDMKO/4o5T2BAAETFOAwgUlQBo9T/NvxRccoAgcLSyZ0pXvCalp7pjmJRSpIW/4R7Qj9fh7dK4m+OMVcgQABExTgMIFKUAaNn7wGb/UCrYJCqgbEAefIE7dslq0Ln+YtbUf8oufG13P4kdq7AhACJinAYQKGoB0EpvKU28018LTZwJdGpjtjtmSauFtPL12FdI2b2OJ94VZ7xChgCIiHEaQKAoBkDLXt4c9hlp8xC2iPt4leRLY653xytZ2fvcDm2OfZXUEQIgEEZOAwgU1QD4b31OkJa+ZIJPniJfdnmU9ZlS387uOCWj3p38ZV94+tutIzuk8be4YxY2BEBEjNMAAkU9AFp2pwu7U0jUzxQV7pIm36PQLPw89ib/YQfKLTsuY7/qjlnYEAARMU4DCEQA9GW29fe8zVsRzSeE7dm/LcP8s2axY5OMMo+T1vRk0eegql4G5svuuIUNARAR4zSAQATAT8ruLm0fK5UVKlJVfEAae6M7HslqxNXc23m0ql4I+gvuuIUNARAR4zSAQARA14AzpOWvmlAUofsCt47yn46OHYuklCqty4h9hdTH6+B6/yEoZ+xChgCIiHEaQCACYHx9OkkzH5NKDyn0VXo4ZGf/rpIOb4t9ldTHy+70YtdHjB27sCEAImKcBhCIAHgUKf5+qXvnSxWlCmXZ3TFW/l3KOj7O609CGfbev3fZ9eNYlbtU6tvFHb+wIQAiYpwGEIgAeAwmBA77tLQ+y4TAEoWrqqQDy6WRn4vzupOUva8tf03sC6Via99CE5Zbu+MXNgRARIzTAAIRAGsmu5u09E/hejik7Ii06DfhCQIZbczreV6qLIt9pVRs7Zrqjl8YEQARMU4DCEQArDm7tMjUB6W85eFYXHjnBKl3R/d1Jit7T1v+uthXScWrDb3d8QsjAiAixmkAgQiAtTfiSmnz0OS+L/DIznBd+rXmPxX7KqmgWvIHd/zCiACIiHEaQCACYN30P11a9lepaL+SrsoOSQuekdJbua8rWdkzmXnLYl8pFVQzH3XHMIwIgIgYpwEEIgDWXVY7aeJdUu6HyfPUqX2QxT4l2ydkT4DO+I5/TyNVsxp7gzuGYUQARMQ4DSAQAbD++nf3Fx4u2pP428htGep/v7GvIZn1O0XaMT7xxz5hyozTgLPccQwjAiAixmkAgQiADaPPCdL0b0v7FiTu/rN750qDL3S/92Q36W6pcHfsq6WCqjRfymjrjmMYEQARMU4DCEQAbDh2K7VB5/iXWMsOJ0YQtGfF7PexZ5Y06vPu95zsep/gj3cijHWy1L555rPawh3LMCIAImKcBhCIANjw7MF1zPXS1hFSSb6atew9fxv6mmD6Kff7DIP3r5WK98W+aupotfptVS9wHjuWYUQARMQ4DSAQAbDx9DtZmv0Dac/s5tlFpGifv82bvUcu9nsLi5Wvx75q6lg19wl3HMOKAIiIcRpAIAJg47JnAwedL817Ujq4Vk1S9nJo3lJp6kPhWug5lt3Ltign9tVTRyu7duW4W92xDCsCICLGaQCBCIBNJEXKbCfNfEzaNdlfiLmqAXcTsff6lRb4a+EteFrKah/newgTM54Lf5M8y+8kStl9kodeGmc8Q4oAiIhxGkAgAmDTs08Mj79NWvWmtGeuCW4H676Eid33tmCTtHmQNOdH0sBzFIn7u+wyJvap5rqOW1Rr20gTikK2DNDREAARMU4DCEQAbD52b+EhF5kweIu0+AVzcB7lh7mjndWy/5+97Llnjn9/n10AedQ14b7PL56Z35VK8mJHhzpa2bC8/BUpo407nmFFAETEOA0gEAEwMdht2exlW3t20C7UPPJqaZwJhpO+IU34mjTmK9KIq+wBzfyZTubPdvjoQJ7qfq2ws2ewtgzn7F9ty67/N+sxdzzDjACIiHEaQCACIJLNhDukkgOialkH10nvf9EdzzAjACJinAYQiACIpNLCX9eQql3Zs6W7TRbq0znOmIYYARAR4zSAQARAJBN7z2R5kahaVmWFtPxldzzDjgCIiHEaQCACIJKF3WrP7mJB1b7sQuRjb3THNOwIgIgYpwEEIgAiWQz/TNMtph22Ktor9e7gjmnYEQARMU4DCEQARDKwO6rYpXK4/Fu32jzYHdMoIAAiYpwGEIgAiGQw7FJp/yJRdSi7WPjke9wxjQICICLGaQCBCIBIdPbs39yfShXFoupQB1ZJgz7ljmsUEAARMU4DCEQARKLr3Unav1hUHWvtu2YMT3DHNQoIgIgYpwEEIgAi0c3+Abt+1LXsdnlTH3THNCoIgIgYpwEEIgAikfU9Sdo7X1RdyoTmvXOie/nXIgAiYpwGEIgAiEQ28ztSyUFRdaiKUmn53/x7KGPHNSoIgIgYpwEEIgAiUQ04Q9o5nsu/da2ifdKIK9xxjRICICLGaQCBCIBIRPas1YxvSyUHRNWxto81Y5nijm2UEAARMU4DCEQARCLq28UEmDGi6liVldKU+91xjRoCICLGaQCBCIBIRFPu9e9ho+pWe2bb8OOOa9QQABExTgMIRABEoundUdq3QFQdq7xQmvPjaD/88W8EQESM0wACEQCRaGY8IpUdFlXHsuHZbp0XO65RRABExDgNIBABEIlkwJnSzklSVaWoOpTdLm/Jn6T0lu7YRhEBEBHjNIBABEAkioxW0vynpLJCUXUsu+/vwHPdsY0qAiAixmkAgQiASBR2x4p9H4iqRy36P3dco4wAiIhxGkAgAiASxcJfS5VloupYh7f7l9BjxzXKCICIGKcBBCIAIhHYs38l+aLqWPbev3k/5cnfWARARIzTAAIRANHcMo+TVv1TqqwQVYeyW+XtniYNPt8d26gjACJinAYQiACI5jb+NunwVvb8rWsV50mzHufsXzwEQESM0wACEQDRnPqfJm0ZzrIv9aktw6Ss9u7YggCIyHEaQCACIJpNijT7hyz7Up8qPSiN/FycsUU1AiAixmkAgQiAaC7ZXaWD60XVsexZ05V/59Lv0RAAETFOAwhEAERzsIs+r3yD+/7qWjb85cyUhlzkji3+gwCIiHEaQCACIJpcqjTpHqkwR1Qdy47dlPtUfRndGV/8fwRARIzTAAIRANHUBp4jbR8nVbHsS53KLpez5h0pq4M7tvgkAiAixmkAgQiAaEoZraVFz/sLF1O1L3vJ/OAG/+np2LGFiwCIiHEaQCACIJrSmOulskOi6lhFe6QJt7vjivgIgIgYpwEEIgCiqfTvLu2aIqqOVXZEWvJH1vyrDQIgIsZpAIEIgGgK9tLvh3+QyotE1aHsU787J0oDznTHFsEIgIgYpwEEIgCisdl16qY9LBXtFVXHyl8jDbnYHVscHQEQEeM0gEAEQDS2oT2k/R+KqmMV55oA/d/uuOLYCICIGKcBBCIAojFltJE2DWCv37qWvWS+5EUps507tjg2AiAixmkAgQiAaCyZbaVF/8d9f3WtihJ/vb++XdyxRc0QABExTgMIRABEY8hoKU19SDqyQ1Qda9v70oDT3bFFzREAETFOAwhEAERjGH65lLeUvX7rWnnLpGGXueOK2iEAImKcBhCoOLeNmSjfcyZOoK76dpZyZnPfX13KjlneCmnsDWKf3waQ3W26Yuc8IMScBhCoOLe1mSjfdiZOoC76nSqtS5cqCX91Krvcy4Q7RPhrINndxit2zgNCzGkAgWwATPNecyZOoLZ6d/QXey4tEFWHKs2XJt3tr5sYO7aom+xuwxU75wEh5jSAQMW5rUwA/L0zcQK1YUPL3J9IJQdE1bLsfZJ2j99ZjxH+Glp2t76KnfOAEHMaQKCS3FQzUf7YmTiBmrLbvNmFiiuKRdWybPg7tMkfv/SW7tiifrK7/U2xcx4QYk4DCFSU6+lN7z4zWVY6kydwLDa0TPkvE2K2iKpDFe8z4e9BP0THji3qL7vbLxQ75wEh5jSAQBVlnha+dJOZLA86kydwVCnS+Fulg2t54re2VX3Zd68049uc+WtM2d3Mbydx5j0gpJwGcFRbR1xuJsuVzuQJBLGhZeKdUkmuqFqWDcu5S/zw3CvVHVs0lDKNue1ixc53QIg5DeCoto4420yWE+NMoICrOvzdJRVsFFWH2jtfGvMVEf4a3RbzGT1NsfMdEGJOAziqLSOOV08vLc4ECnySfUp10jek/NVc9q1t2cu+u6dLIz/njisaXpo31gTAzoqd74AQcxrAUVWWeZr75FNm0ix0JlHg3zLaSjO/K5XkscVbbavskLT2PWnAme64ojFUGb83AbCNYuc7IMScBnBMC56+xfzGvCPORApIfTpJc5/wwx9VuyrOlRY/749h7LiisRRo3FfvU/E+8y9x5jsgpJwGcEzznj5FPb3FcSZSRF2fE6WlL5kgs58zf7Wtgg3S7O9Lmce544rGtETrM69Q7DwHhJzTAI6pJN/TiMvfjDORIrJS7TIa0pbhLPJc26ookXZOlEZezTIvTa9Smcf30eYhxyt2ngNCzmkANTLimi9VT57uhIqoyWgjjf2q/9ACD3vUvOwZ0iO7pBWv+2dOY8cVTeGgZn3vccXOb0AEOA2gRjYNaWsmz7VxJlRESXqqNOcnUv4aE2gqRNWwbFDev0ia+pCUdbw7rmgaad4GEwDPVuz8BkSA0wBqpLLcU0/vBXEWMKLsJd+u0vJXpNKDompY9qxfeZG0aaA08Fwu+Ta3Aee8o8JdKYqd34AIcBpAjVRWeOr7hc+YSXSdM6ki3DLbSpO+Ke2ZK/M5EFXDqiyTcmZJ0x7yl8mJHVc0tUOa+djlip3bgIhwGkCN5UzroEzvDTORlseZXBFG/U+TFj0nHdkhqhZll3dZ+XdpyMWq3hc5dlzRHAapeP9xip3XgIhwGkCNlR30NPf7N5uJdLP8xVRjJ1iERXorfz9a+7Rq2RFRNSh7ubeizH84xu6F3LujO65oLnl6LfWbKtzP5V9EltMAamVLVgv1O/F1cRYwhMyxse9J0pgb/OVdKstF1bDKC6X9S6QZj0gZreKMLZpRufqf/p5yZnZS7HwGRIjTAGpt6K0XKM3bGWeiRbKyD3hM/7a0sZ9UtI9FnWtTeUulxS9IQy4Ul3sTUJq3VfN/aX6riTOXARHiNIBa27XQU682vxWXgZOfvUdt8XPSrmn+fWsEv5pXYY604lVp2KX+gzKxY4vEMPjCvyl/Dfv+IvKcBlAne+Z0N79Zv28m2ApnwkVisluO2Yc6Rn5Omv8L/141u0SJvdRL8KtBfbSkS8FGf/u7geexrEviW6FJD5+g2PkLiCCnAdTJke0pGvPlW6oXVuVMYBJI9YOfvcRbekhULctu35YzQ1r8vH/GzxlfJKDdmnz3vdVLWMXOX0AEOQ2gzg6ub6uR1zxrQmBhnMkXicY+4DHuJmnNO9KRnZz1q0nZM372TOnsx6XBF/CAR/Io0rveX7RzKnv+Ah9xGkC9jH+inXq26CeeCk4eme2kgWdJc37sb09m7/2zixYTCP0t28oOS4e2Sqv+KY26RurTSUpv4Y4jElOaV6nM44ZqyZ+6qaLENOLMW0AEOQ2g3mY8erqZdCeL+wGTjw2Ddr0/+zCD3emjJC+aQbCi2N/feGN/E4x/JA04yx0rJIkWH2rZy+cqdp4CIs5pAPVWWpCiGd/9gpl8F4q9gpNUqjTkImnKfdKyv0h750vlJhSFvQr3mNCX7Z8Nff8LUlaHOGODJLJei1+4TbFzFAACIBpJ6cEWmvmd65TeYq14KCS5VT8t3F0ada206P/8MFiSbwLhkeRdHNpe2rUPcpQdkg5tltb2lKY+YJcIkfqcyCXe5GfnnE3q3/4BHVjaUrHzEwACIBrZ7O9/SWneKnEmMERSpIFn+2cHl/9N2jVJOrDCP3uWyIHQ3stnl2zZO1fa1E9a8Etp9HWs2RdOmzS0+73a9T5bvQEBnAbQoMqLUjXjOzeZCXm+uCcwnPp0lkZcJU2+R5r/lLTqLWn7GOngen9LtOYoG0QLd0s5M6UNfaQlL0ozH/W3tRt4Dmf4wm2T+nd4QLtGEf6Ao3AaQIMryWup6d+6SmkpM8Xl4JAzx9ys46Xsbv49hHatwcl3Swt+Ja15V9oxVspb/tGTxqX+08Y2rP1/Fb6qj/l37xN/zv49o7TAP6tnl2ZZl+lvwTb9WybofcVfn88+vNG3i5TROs73ipAxc0vKGi1u+U3ljeKyL3AMTgNoNLN/1F4ZXqaZqA/4k7UXO4EjSv59b6ENau9/URp3sx8W7aXl6Q/7exFPe8j8+73SxK+b//8WafRXzJ//rL+DiX1iOfZrIqrKzOdhjJb/7SJn3gEQl9MAGo1dgX/5cydqzPU/V5rHwyEA6i/NyzPe1ZKXznLmHACBnAbQ6Ao2tdWwK68xk/ZUZzIHgJrbrsne49rxQmdVlHrOXAMgkNMAmkRFsafcJR014PTvm0n8Q6M0zuQOALHsigK5Gnz+IE1/+ExVFKZK5Z4zxwA4KqcBNKl9MzwtePJi9W7/utK8beKyMIBg5WaemKSR13xbB9d3cOYTADXmNIBmsf399przk9vM5D7ETPLFcSZ+ANG2Xb1a/582DTpPB1alOnMIgFpxGkCzKS9KUeHu4zXm+nvNZL/EhMFCcUYQiLJKMw/kKL39O1r1Zg8V5rR25g0AdeI0gGZXdtjTzEe6a2iP35oDwNI4BwUA4WZ/8bPLRY3UpHtu14J/sKgz0MCcBpAw9s1vpbXvXmUOAmkfHQxiDxIAwukDjf7So1rXs7tKCzxnbgBQb04DSChVVZ7W9O+of518q9JbTTYHBi4LA2GU5pWrp7dDWR3/pL3zzlRhDrt5AI3IaQAJa/nvWmvsDT8xB4oPzAGjyDmAAEhG9he6HPU+8V8af/dnlDOPy71AE3AaQEIr2tNCy1/toWGX/c4EwR1xDiYAkkehenqjNfuHD2pDv7bOzzuARuM0gKRQsOE49e12rdJbDpd/NpDLwkBysD+r9uneHXq/9aPa+6NuKi1gWRegiTkNIKnsGt9K4278mjLbTTEHlMNxDjYAEkeF+Tldp8Hnv6Tpt5/q/DwDaDJOA0hKK//SXVO8X5uDyzLZ3QLcAw+A5pWvrPYZWvz8l7RnHuv5Ac3MaQDJqdRT0cQ2mvRfl5kQ+Jo52JTFOQABaHoVxly97t2v9dld3J9dAM3BaQBJrbLMLiTdQsOuvFbZ3YeZMJgn7g8EmoPd0nGNhl/2A334QvvqnX6qKj3nZxZAs3AaQGjsGN9JGWd+24TA2eZAVBrnAAWgcWzWiCte1vyf9zC/kLGsC5CAnAYQKttmelr28iXmgPS8YZeN4Wwg0HhKjBHq+anrlLesvfPzCCBhOA0gdOxl4aI9rTXr8Qs14OxMpXm58u9Lij14AaiLNK9Qme1macD592jbmBNUlOc5P4cAEorTAEKtaG9rjbnum0r3RpgD1yHnQAagNuzDVss08c7fatkrJzo/bwASltMAQu/Qek8bep2m/l1/YA5eq8RlYaAu8tXTe0VTH7xaxftbOT9nABKa0wAi4/CWllqXdqGy272sdG+n7O4E7kEOwH/YX5YOq3fH8Rp68XU6uK69Sg54zs8WgITnNIDoyfS08O7LzYFtiLH3o4Nc7IEPiLpiZR0/TZPv+R/tnsoDHkCScxpAJFVVeFr1WmeNv+1hpXkTxUMiwL/ZfXvXyT5Jv/of5zk/OwCSktMAIq1wVwvtW3iaene028r9+7IwZwQRRVXmZ6BUmW3e1fRHLtf+hW2rn6iP/ZkBkJScBgAjd72nQTedp36nvGEOgtuqD4buARIII/tZz9Mgb6TGXnGjKgh9QBg5DQAfs3lQK8198k5zQBxuFMQ5WAJhYm99WKAh5z6q3b87RdrsOT8TAELBaQCIUV6Yol2Tu2nC7d8xB8e1cQ6aQBjYB6Be1Oq3eyjvw1Tn5wBAqDgNAAEqy1M05b86afCn/mAOlOuVVr0IbuxBFEgm9h7XPXq3VZYWPHO+KkpSVVXpOZ99AKHjNAAcw4HlLbXgF59Xv67vyN4r5R5UgWRQWL0jzoRb7tOM59s6n3MAoeY0ANTQzkkd9Zp3nzmQTpO/JVbsARZIVOvVv9vj2jr0dB3emuJ8tgGEntMAUENVVZ4K96Zq5cudNeSCx5SWst4cWEviHGyBRFCpnt5mZZ34kjYPPkcleS2czzSAyHAaAOpo9o/O16hrXjEH2o3VB1v3AAw0B7usy16lef015Tuf04oBnPEDQAAEGlT+qvbqd/X16mkOtpwNRPOzu3hM0sRvPKB1GV1UWeE5n1kAkeQ0ANTT4RxPu6d1VnbXB5R53AJzEC6Kc2AGGos941dqgt9GZXd7SgUbTlJxHsu6APgEpwGgAa15u4sm3vmsOSCvEg+KoPHZ7dtM8DvtZc38r0/p0EbP+UwCgAiAQOMrL0zVnEevVYb3hjlA749z0AbqL616p5oBWvTbW7VtdGvncwgAH+M0ADSC0nxPuYs6auiVX1FGm9nyzwayvzDqy36GytUrZYmmHHe/9v/hJFUU85AHgGNyGgAaWe6Sdup/3iN6z5slHhRB3dn7/JZp+GW/1oLvHu98zgDgKJwGgCawdYanhb//lHq1/LM5iG8Sy8agdvap/2mv6MPfX6H81aznB6DWnAaAJrR7+nGa+5MvmQN6P9kzOu6BHvg4e9ZvvJZ7t2v/XM76AagzpwGgiVVVeKosS9WYG25VevW2cvZmfu4PxMcdUa+UxRr++bu18t3WqiozzSrP+SwBQA05DQDNpGS/p8W/7Kahn/65OeB/IEIgenkVSvNWasz1z2vBs2c7nxkAqCOnAaCZ7f+wpdZnXqae3psmAOTFCQWIBruAeE+Nv/ZKFWxs63xOAKAenAaABFBV6al4aBstvujzymw7VGneQXFGMCoOqvcJYzXkohurnxgvK/CczwcA1JPTAJBglv+ptcZ/7XsmBE4z4aAwTmBAOBQb8zX94ce1PrOD8zkAgAbkNAAkoMLdqSYUnK+hPX5pQsLOOOEByW2HenovaM5PP63yIvbtBdDonAaABFa4u7X+dfZn1LtjutK8fWL9wGRWad7DfPXtMkjjbuxRfZ9f2RHPec8BoBE4DQBJYOuYlpp8/03KaDta9p4xN1wgkaV5R9TvlJHmPbxTecvbOO8vADQypwEgiaxN66Zp//MTEygWqnpPWM8NG0gkdlmXpXq35c+1ZXg35/0EgCbiNAAkmeLcVhr/wLlKb/dnEzDyxWXhRGTek5R89W7/khb++iLtX9LKeR8BoAk5DQBJqjQ/ReNv/awGnJWpNC8nTghB07NhfI+Gef017c7LnfcMAJqJ0wCQ5HZM7KjFp91rQuBUEz5K4oQSNI1y9fTGafgVDyjvj52kPM95rwCgmTgNACFQtdjT8tfONSHkKdklRlhEummledv0rveMtgw/S/lrU5z3BwCamdMAEBJVVZ4qyz3N/+nJGnbpP+UHQR4UaTz2AY8dSmv/sla8flr12Nv3IPZ9AYAE4DQAhNCRHW004sZb9S+vrwkqh+OEF9RdlQl+B5Tu9dPU+27X/DdYyBlAwnMaAEIqb5OnzSNPUVanR0xoWVYdXNwwg9pK85Zo2Gfu0zYztsX7PGfcASABOQ0AIVdyIFUb+nTXkEt+rYzW68Vl4booU09vlXqf+ivtmX2qSgu4zw9AUnEaACJkwdOXK9PrZQLNLnFGsCbsGO1Qett/aurjPbRpkueMKQAkAacBIEIqij1t7t1J4269S2me3VYuNvDgP4qNYZr1vTu1cdDxzlgCQBJxGgAiqDg3RQfXdVafk36knt5K+esHckbQf8DDBr8VGnX1Qzq0uZPKDvGQB4Ck5zQARNjeFZ5GP3C2+p76ogk+GxXtbeVsAF6mIRc8p1kPdFdpvueMFwAkKacBANoyoqUWPHOLCUB22ZiCOOEo7HKNNK18/XPaO5N9ewGEjtMAgGrlhSnKXdJZE7/+TfVKWSL75Gu4Lwvb11ai9BZTNffJ25W35ARVVXrOuABACDgNAHDMfaijhl36jAlIS5RWHQRjw1NyS/OKzD8/0Ohrf6jlv27pvH4ACBmnAQBx5S1toaV/ulx9u7xmwtJeJ0QlqzRvi4Zc8rx5bRercBcPeACIBKcBAEe1b0IHLfFuN+FpovzLwm6oSg726d7B2tDpWh1Y1dZ5nQAQYk4DAI6uyqu+N27531tq1DX3yl4W7uUVxglYiapAGW0navQXvqrto1pwnx+AKHIaAFBjleWeFv7qPL3/xedNsFquxH5IpERp3jxN+sZTWvryyc5rAYAIcRoAUGsH17bVtssuU4b3jgla+XHCV3PL0eBPPaNtoy5S4W6WdQEQeU4DAOrmsKdd81ors0cPDe3xitJbbDDB64ia56ygXcA6X1ntF5rv5Wnt7HGGyvbzdC8AfMRpAECD+OCZizXm+meU5o0wYWy7miIIpnmlht3Kro8m3/OYVr7OpV4AiMNpAECDKdiYog19u2r1P29UumfD4Ptq+CVkyo115mtnqW/Hx8x/72pt7HuCinM95/sBAFRzGgDQ4KoqPB3e2sropIPrT9OAM24znlf/MwYq+9TVJsDtkg2GaV6e+edB+dvPHfqI/Xd7X+F+Y4+xU/1Pn2P+fprxU4269grzdU81OujIdtbxA4AacBoA0KQObUrV9IdO0bSHPq2pD91o/nm38ZDx8EfuM+4yrjXO14yHOqiy1P06AIAacxoAAAAIN6cBAACAcHMaAAAACDenAQAAgHBzGgAAAAi3/wcsXmu0SVbAjwAAAABJRU5ErkJggg==;" vertex="1" parent="1">
          <mxGeometry x="380.01" y="182" width="53.33" height="30" as="geometry" />
        </mxCell>
        <mxCell id="11ZXBxW8d7kh9rywUKyF-42" value="json" style="text;html=1;strokeColor=none;fillColor=none;align=center;verticalAlign=middle;whiteSpace=wrap;rounded=0;fontSize=15;fontFamily=Architects Daughter;" vertex="1" parent="1">
          <mxGeometry x="132" y="186" width="50" height="22.5" as="geometry" />
        </mxCell>
        <mxCell id="11ZXBxW8d7kh9rywUKyF-44" value="" style="sketch=0;outlineConnect=0;fontColor=#232F3E;gradientColor=none;strokeColor=#ffffff;fillColor=#232F3E;dashed=0;verticalLabelPosition=middle;verticalAlign=bottom;align=center;html=1;whiteSpace=wrap;fontSize=10;fontStyle=1;spacing=3;shape=mxgraph.aws4.productIcon;prIcon=mxgraph.aws4.aurora;" vertex="1" parent="1">
          <mxGeometry x="509.01" y="317" width="40" height="40" as="geometry" />
        </mxCell>
        <mxCell id="11ZXBxW8d7kh9rywUKyF-45" value="rds&lt;br&gt;loyalty&lt;br&gt;data" style="text;html=1;strokeColor=none;fillColor=none;align=center;verticalAlign=middle;whiteSpace=wrap;rounded=0;fontSize=15;fontFamily=Architects Daughter;" vertex="1" parent="1">
          <mxGeometry x="501.28" y="360" width="60" height="48.5" as="geometry" />
        </mxCell>
        <mxCell id="11ZXBxW8d7kh9rywUKyF-47" value="S3 Object Lambda &lt;br style=&quot;font-size: 12px;&quot;&gt;Access Point (R)" style="text;html=1;strokeColor=none;fillColor=none;align=center;verticalAlign=middle;whiteSpace=wrap;rounded=0;fontSize=12;fontFamily=Architects Daughter;" vertex="1" parent="1">
          <mxGeometry x="187" y="343.5" width="130" height="51" as="geometry" />
        </mxCell>
        <mxCell id="11ZXBxW8d7kh9rywUKyF-51" value="" style="endArrow=none;html=1;rounded=0;sketch=1;hachureGap=4;jiggle=2;curveFitting=1;fontFamily=Architects Daughter;fontSource=https%3A%2F%2Ffonts.googleapis.com%2Fcss%3Ffamily%3DArchitects%2BDaughter;fontSize=16;" edge="1" parent="1">
          <mxGeometry width="50" height="50" relative="1" as="geometry">
            <mxPoint x="392" y="186" as="sourcePoint" />
            <mxPoint x="362" y="152.5" as="targetPoint" />
          </mxGeometry>
        </mxCell>
        <mxCell id="11ZXBxW8d7kh9rywUKyF-52" value="camel EIP" style="text;html=1;strokeColor=none;fillColor=none;align=center;verticalAlign=middle;whiteSpace=wrap;rounded=0;fontSize=15;fontFamily=Architects Daughter;" vertex="1" parent="1">
          <mxGeometry x="357.78" y="154" width="100" height="14" as="geometry" />
        </mxCell>
        <mxCell id="11ZXBxW8d7kh9rywUKyF-53" value="" style="endArrow=none;html=1;rounded=0;sketch=1;hachureGap=4;jiggle=2;curveFitting=1;fontFamily=Architects Daughter;fontSource=https%3A%2F%2Ffonts.googleapis.com%2Fcss%3Ffamily%3DArchitects%2BDaughter;fontSize=16;" edge="1" parent="1">
          <mxGeometry width="50" height="50" relative="1" as="geometry">
            <mxPoint x="417.3399999999999" y="196.69141612663338" as="sourcePoint" />
            <mxPoint x="626" y="139.5" as="targetPoint" />
          </mxGeometry>
        </mxCell>
        <mxCell id="11ZXBxW8d7kh9rywUKyF-54" value="" style="endArrow=none;html=1;rounded=0;sketch=1;hachureGap=4;jiggle=2;curveFitting=1;fontFamily=Architects Daughter;fontSource=https%3A%2F%2Ffonts.googleapis.com%2Fcss%3Ffamily%3DArchitects%2BDaughter;fontSize=16;exitX=1;exitY=0.5;exitDx=0;exitDy=0;" edge="1" parent="1">
          <mxGeometry width="50" height="50" relative="1" as="geometry">
            <mxPoint x="417.3399999999999" y="198" as="sourcePoint" />
            <mxPoint x="656" y="193.5" as="targetPoint" />
          </mxGeometry>
        </mxCell>
        <mxCell id="11ZXBxW8d7kh9rywUKyF-55" value="aggregates" style="text;html=1;strokeColor=none;fillColor=none;align=center;verticalAlign=middle;whiteSpace=wrap;rounded=0;fontSize=15;fontFamily=Architects Daughter;" vertex="1" parent="1">
          <mxGeometry x="618" y="129.25" width="100" height="14" as="geometry" />
        </mxCell>
        <mxCell id="11ZXBxW8d7kh9rywUKyF-56" value="transform" style="text;html=1;strokeColor=none;fillColor=none;align=center;verticalAlign=middle;whiteSpace=wrap;rounded=0;fontSize=15;fontFamily=Architects Daughter;" vertex="1" parent="1">
          <mxGeometry x="647" y="182.75" width="100" height="14" as="geometry" />
        </mxCell>
      </root>
    </mxGraphModel>
  </diagram>
</mxfile>
